<?xml version="1.0" encoding="utf-8" ?>
<svg xmlns="http://www.w3.org/2000/svg" xmlns:ev="http://www.w3.org/2001/xml-events" xmlns:xlink="http://www.w3.org/1999/xlink" baseProfile="full" height="32px" version="1.1" viewBox="0 0 32 32" width="32px">
  <defs/>
  <g id="x1f191a_r31_g25_b26_a1.0">
    <path d="M 2,4 8,4 8,6 4,6 4,12 2,12 z" fill="#1f191a" fill-opacity="1.0" id="x1f191a_r31_g25_b26_a1.0_shape1"/>
    <path d="M 24,6 24,4 30,4 30,12 28,12 28,6 z" fill="#1f191a" fill-opacity="1.0" id="x1f191a_r31_g25_b26_a1.0_shape2"/>
    <path d="M 12,10 10,10 10,4 12,4 z" fill="#1f191a" fill-opacity="1.0" id="x1f191a_r31_g25_b26_a1.0_shape3"/>
    <path d="M 20,10 20,4 22,4 22,10 z" fill="#1f191a" fill-opacity="1.0" id="x1f191a_r31_g25_b26_a1.0_shape4"/>
    <path d="M 14,14 14,12 18,12 18,14 z" fill="#1f191a" fill-opacity="1.0" id="x1f191a_r31_g25_b26_a1.0_shape5"/>
    <path d="M 14,10 14,12 12,12 12,10 z" fill="#1f191a" fill-opacity="1.0" id="x1f191a_r31_g25_b26_a1.0_shape6"/>
    <path d="M 20,10 20,12 18,12 18,10 z" fill="#1f191a" fill-opacity="1.0" id="x1f191a_r31_g25_b26_a1.0_shape7"/>
    <path d="M 4,16 2,16 2,14 4,14 z" fill="#1f191a" fill-opacity="1.0" id="x1f191a_r31_g25_b26_a1.0_shape8"/>
  </g>
  <g id="x100808_r16_g8_b8_a1.0">
    <path d="M 10,30 10,28 8,28 8,26 12,26 12,28 20,28 20,26 24,26 24,28 22,28 22,30 z" fill="#100808" fill-opacity="1.0" id="x100808_r16_g8_b8_a1.0_shape1"/>
    <path d="M 6,22 6,16 8,16 8,22 z" fill="#100808" fill-opacity="1.0" id="x100808_r16_g8_b8_a1.0_shape2"/>
    <path d="M 24,16 26,16 26,22 24,22 z" fill="#100808" fill-opacity="1.0" id="x100808_r16_g8_b8_a1.0_shape3"/>
    <path d="M 30,14 30,16 26,16 26,14 z" fill="#100808" fill-opacity="1.0" id="x100808_r16_g8_b8_a1.0_shape4"/>
    <path d="M 6,14 6,16 4,16 4,14 z" fill="#100808" fill-opacity="1.0" id="x100808_r16_g8_b8_a1.0_shape5"/>
    <path d="M 8,26 6,26 6,24 8,24 z" fill="#100808" fill-opacity="1.0" id="x100808_r16_g8_b8_a1.0_shape6"/>
    <path d="M 26,26 24,26 24,24 26,24 z" fill="#100808" fill-opacity="1.0" id="x100808_r16_g8_b8_a1.0_shape7"/>
  </g>
  <g id="x343234_r52_g50_b52_a1.0">
    <path d="M 20,22 12,22 12,20 20,20 z" fill="#343234" fill-opacity="1.0" id="x343234_r52_g50_b52_a1.0_shape1"/>
    <path d="M 8,20 8,18 12,18 12,20 z" fill="#343234" fill-opacity="1.0" id="x343234_r52_g50_b52_a1.0_shape2"/>
    <path d="M 24,18 24,20 21,20 20,20 20,18 21,18 z" fill="#343234" fill-opacity="1.0" id="x343234_r52_g50_b52_a1.0_shape3"/>
    <path d="M 18,26 18,28 14,28 14,26 z" fill="#343234" fill-opacity="1.0" id="x343234_r52_g50_b52_a1.0_shape4"/>
    <path d="M 6,8 8,8 8,10 6,10 z" fill="#343234" fill-opacity="1.0" id="x343234_r52_g50_b52_a1.0_shape5"/>
    <path d="M 24,10 24,8 26,8 26,10 z" fill="#343234" fill-opacity="1.0" id="x343234_r52_g50_b52_a1.0_shape6"/>
    <path d="M 4,10 6,10 6,12 4,12 z" fill="#343234" fill-opacity="1.0" id="x343234_r52_g50_b52_a1.0_shape7"/>
    <path d="M 26,12 26,10 28,10 28,12 z" fill="#343234" fill-opacity="1.0" id="x343234_r52_g50_b52_a1.0_shape8"/>
    <path d="M 8,16 8,14 10,14 10,16 z" fill="#343234" fill-opacity="1.0" id="x343234_r52_g50_b52_a1.0_shape9"/>
    <path d="M 24,14 24,16 22,16 22,14 z" fill="#343234" fill-opacity="1.0" id="x343234_r52_g50_b52_a1.0_shape10"/>
  </g>
  <g id="x453c3d_r69_g60_b61_a1.0">
    <path d="M 8,22 8,20 12,20 12,22 z" fill="#453c3d" fill-opacity="1.0" id="x453c3d_r69_g60_b61_a1.0_shape1"/>
    <path d="M 24,20 24,22 20,22 20,20 z" fill="#453c3d" fill-opacity="1.0" id="x453c3d_r69_g60_b61_a1.0_shape2"/>
    <path d="M 8,8 6,8 6,6 8,6 z" fill="#453c3d" fill-opacity="1.0" id="x453c3d_r69_g60_b61_a1.0_shape3"/>
    <path d="M 26,8 24,8 24,6 26,6 z" fill="#453c3d" fill-opacity="1.0" id="x453c3d_r69_g60_b61_a1.0_shape4"/>
    <path d="M 4,8 6,8 6,10 4,10 z" fill="#453c3d" fill-opacity="1.0" id="x453c3d_r69_g60_b61_a1.0_shape5"/>
    <path d="M 26,10 26,8 28,8 28,10 z" fill="#453c3d" fill-opacity="1.0" id="x453c3d_r69_g60_b61_a1.0_shape6"/>
    <path d="M 10,16 10,14 12,14 12,16 z" fill="#453c3d" fill-opacity="1.0" id="x453c3d_r69_g60_b61_a1.0_shape7"/>
    <path d="M 20,16 20,14 22,14 22,16 z" fill="#453c3d" fill-opacity="1.0" id="x453c3d_r69_g60_b61_a1.0_shape8"/>
    <path d="M 10,18 8,18 8,16 10,16 z" fill="#453c3d" fill-opacity="1.0" id="x453c3d_r69_g60_b61_a1.0_shape9"/>
    <path d="M 22,16 24,16 24,18 22,18 z" fill="#453c3d" fill-opacity="1.0" id="x453c3d_r69_g60_b61_a1.0_shape10"/>
  </g>
  <g id="xca90f3_r202_g144_b243_a1.0">
    <path d="M 20,24 20,26 12,26 12,24 z" fill="#ca90f3" fill-opacity="1.0" id="xca90f3_r202_g144_b243_a1.0_shape1"/>
    <path d="M 10,10 10,14 9,14 6,14 6,12 8,12 8,10 z" fill="#ca90f3" fill-opacity="1.0" id="xca90f3_r202_g144_b243_a1.0_shape2"/>
    <path d="M 22,10 24,10 24,12 26,12 26,14 23,14 22,14 z" fill="#ca90f3" fill-opacity="1.0" id="xca90f3_r202_g144_b243_a1.0_shape3"/>
    <path d="M 10,24 10,22 12,22 12,24 z" fill="#ca90f3" fill-opacity="1.0" id="xca90f3_r202_g144_b243_a1.0_shape4"/>
    <path d="M 20,22 22,22 22,24 20,24 z" fill="#ca90f3" fill-opacity="1.0" id="xca90f3_r202_g144_b243_a1.0_shape5"/>
  </g>
  <g id="x5d555d_r93_g85_b93_a1.0">
    <path d="M 14,18 14,16 17,16 18,16 18,18 17,18 z" fill="#5d555d" fill-opacity="1.0" id="x5d555d_r93_g85_b93_a1.0_shape1"/>
    <path d="M 10,12 12,12 12,14 10,14 z" fill="#5d555d" fill-opacity="1.0" id="x5d555d_r93_g85_b93_a1.0_shape2"/>
    <path d="M 22,12 22,14 20,14 20,12 z" fill="#5d555d" fill-opacity="1.0" id="x5d555d_r93_g85_b93_a1.0_shape3"/>
    <path d="M 12,14 14,14 14,16 12,16 z" fill="#5d555d" fill-opacity="1.0" id="x5d555d_r93_g85_b93_a1.0_shape4"/>
    <path d="M 18,16 18,14 20,14 20,16 z" fill="#5d555d" fill-opacity="1.0" id="x5d555d_r93_g85_b93_a1.0_shape5"/>
    <path d="M 10,18 10,16 12,16 12,18 z" fill="#5d555d" fill-opacity="1.0" id="x5d555d_r93_g85_b93_a1.0_shape6"/>
    <path d="M 20,16 22,16 22,18 20,18 z" fill="#5d555d" fill-opacity="1.0" id="x5d555d_r93_g85_b93_a1.0_shape7"/>
    <path d="M 14,18 14,20 12,20 12,18 z" fill="#5d555d" fill-opacity="1.0" id="x5d555d_r93_g85_b93_a1.0_shape8"/>
    <path d="M 20,20 18,20 18,18 20,18 z" fill="#5d555d" fill-opacity="1.0" id="x5d555d_r93_g85_b93_a1.0_shape9"/>
    <path d="M 14,24 12,24 12,22 14,22 z" fill="#5d555d" fill-opacity="1.0" id="x5d555d_r93_g85_b93_a1.0_shape10"/>
    <path d="M 18,22 20,22 20,24 18,24 z" fill="#5d555d" fill-opacity="1.0" id="x5d555d_r93_g85_b93_a1.0_shape11"/>
  </g>
  <g id="x322929_r50_g41_b41_a1.0">
    <path d="M 8,24 12,24 12,26 8,26 z" fill="#322929" fill-opacity="1.0" id="x322929_r50_g41_b41_a1.0_shape1"/>
    <path d="M 20,24 24,24 24,26 20,26 z" fill="#322929" fill-opacity="1.0" id="x322929_r50_g41_b41_a1.0_shape2"/>
    <path d="M 8,12 6,12 6,10 8,10 z" fill="#322929" fill-opacity="1.0" id="x322929_r50_g41_b41_a1.0_shape3"/>
    <path d="M 24,10 26,10 26,12 24,12 z" fill="#322929" fill-opacity="1.0" id="x322929_r50_g41_b41_a1.0_shape4"/>
    <path d="M 8,16 6,16 6,14 8,14 z" fill="#322929" fill-opacity="1.0" id="x322929_r50_g41_b41_a1.0_shape5"/>
    <path d="M 24,16 24,14 26,14 26,16 z" fill="#322929" fill-opacity="1.0" id="x322929_r50_g41_b41_a1.0_shape6"/>
    <path d="M 14,28 12,28 12,26 14,26 z" fill="#322929" fill-opacity="1.0" id="x322929_r50_g41_b41_a1.0_shape7"/>
    <path d="M 18,28 18,26 20,26 20,28 z" fill="#322929" fill-opacity="1.0" id="x322929_r50_g41_b41_a1.0_shape8"/>
  </g>
  <g id="x776a77_r119_g106_b119_a1.0">
    <path d="M 14,16 14,14 18,14 18,16 z" fill="#776a77" fill-opacity="1.0" id="x776a77_r119_g106_b119_a1.0_shape1"/>
    <path d="M 14,20 14,18 18,18 18,20 z" fill="#776a77" fill-opacity="1.0" id="x776a77_r119_g106_b119_a1.0_shape2"/>
    <path d="M 14,22 18,22 18,24 14,24 z" fill="#776a77" fill-opacity="1.0" id="x776a77_r119_g106_b119_a1.0_shape3"/>
    <path d="M 12,12 14,12 14,14 12,14 z" fill="#776a77" fill-opacity="1.0" id="x776a77_r119_g106_b119_a1.0_shape4"/>
    <path d="M 20,12 20,14 18,14 18,12 z" fill="#776a77" fill-opacity="1.0" id="x776a77_r119_g106_b119_a1.0_shape5"/>
  </g>
  <g id="x1f0452_r31_g4_b82_a1.0">
    <path d="M 10,4 10,6 8,6 8,4 z" fill="#1f0452" fill-opacity="1.0" id="x1f0452_r31_g4_b82_a1.0_shape1"/>
    <path d="M 24,6 22,6 22,4 24,4 z" fill="#1f0452" fill-opacity="1.0" id="x1f0452_r31_g4_b82_a1.0_shape2"/>
    <path d="M 2,12 4,12 4,14 2,14 z" fill="#1f0452" fill-opacity="1.0" id="x1f0452_r31_g4_b82_a1.0_shape3"/>
    <path d="M 30,12 30,14 28,14 28,12 z" fill="#1f0452" fill-opacity="1.0" id="x1f0452_r31_g4_b82_a1.0_shape4"/>
    <path d="M 6,22 8,22 8,24 6,24 z" fill="#1f0452" fill-opacity="1.0" id="x1f0452_r31_g4_b82_a1.0_shape5"/>
    <path d="M 26,22 26,24 24,24 24,22 z" fill="#1f0452" fill-opacity="1.0" id="x1f0452_r31_g4_b82_a1.0_shape6"/>
  </g>
  <g id="x4c474c_r76_g71_b76_a1.0">
    <path d="M 6,6 6,8 4,8 4,6 z" fill="#4c474c" fill-opacity="1.0" id="x4c474c_r76_g71_b76_a1.0_shape1"/>
    <path d="M 26,6 28,6 28,8 26,8 z" fill="#4c474c" fill-opacity="1.0" id="x4c474c_r76_g71_b76_a1.0_shape2"/>
    <path d="M 12,10 12,12 10,12 10,10 z" fill="#4c474c" fill-opacity="1.0" id="x4c474c_r76_g71_b76_a1.0_shape3"/>
    <path d="M 22,10 22,12 20,12 20,10 z" fill="#4c474c" fill-opacity="1.0" id="x4c474c_r76_g71_b76_a1.0_shape4"/>
    <path d="M 14,18 12,18 12,16 14,16 z" fill="#4c474c" fill-opacity="1.0" id="x4c474c_r76_g71_b76_a1.0_shape5"/>
    <path d="M 20,16 20,18 18,18 18,16 z" fill="#4c474c" fill-opacity="1.0" id="x4c474c_r76_g71_b76_a1.0_shape6"/>
  </g>
  <g id="x6c47ac_r108_g71_b172_a1.0">
    <path d="M 10,6 10,8 8,8 8,6 z" fill="#6c47ac" fill-opacity="1.0" id="x6c47ac_r108_g71_b172_a1.0_shape1"/>
    <path d="M 22,8 22,6 24,6 24,8 z" fill="#6c47ac" fill-opacity="1.0" id="x6c47ac_r108_g71_b172_a1.0_shape2"/>
    <path d="M 4,12 6,12 6,14 4,14 z" fill="#6c47ac" fill-opacity="1.0" id="x6c47ac_r108_g71_b172_a1.0_shape3"/>
    <path d="M 26,12 28,12 28,14 26,14 z" fill="#6c47ac" fill-opacity="1.0" id="x6c47ac_r108_g71_b172_a1.0_shape4"/>
    <path d="M 8,22 10,22 10,24 8,24 z" fill="#6c47ac" fill-opacity="1.0" id="x6c47ac_r108_g71_b172_a1.0_shape5"/>
    <path d="M 24,24 22,24 22,22 24,22 z" fill="#6c47ac" fill-opacity="1.0" id="x6c47ac_r108_g71_b172_a1.0_shape6"/>
  </g>
  <g id="x221517_r34_g21_b23_a1.0">
    <path d="M 18,12 14,12 14,10 18,10 z" fill="#221517" fill-opacity="1.0" id="x221517_r34_g21_b23_a1.0_shape1"/>
    <path d="M 12,8 14,8 14,10 12,10 z" fill="#221517" fill-opacity="1.0" id="x221517_r34_g21_b23_a1.0_shape2"/>
    <path d="M 20,10 18,10 18,8 20,8 z" fill="#221517" fill-opacity="1.0" id="x221517_r34_g21_b23_a1.0_shape3"/>
  </g>
  <g id="x9b5cc7_r155_g92_b199_a1.0">
    <path d="M 10,10 8,10 8,8 10,8 z" fill="#9b5cc7" fill-opacity="1.0" id="x9b5cc7_r155_g92_b199_a1.0_shape1"/>
    <path d="M 22,10 22,8 24,8 24,10 z" fill="#9b5cc7" fill-opacity="1.0" id="x9b5cc7_r155_g92_b199_a1.0_shape2"/>
  </g>
</svg>
