<?xml version="1.0" encoding="utf-8" ?>
<svg xmlns="http://www.w3.org/2000/svg" xmlns:ev="http://www.w3.org/2001/xml-events" xmlns:xlink="http://www.w3.org/1999/xlink" baseProfile="full" height="8px" version="1.1" viewBox="0 0 8 8" width="8px">
  <defs/>
  <g id="x592859_r89_g40_b89_a1.0">
    <path d="M 1,3 0,3 0,0 2,0 2,1 1,1 z" fill="#592859" fill-opacity="1.0" id="x592859_r89_g40_b89_a1.0_shape1"/>
    <path d="M 5,0 7,0 7,3 6,3 6,1 5,1 z" fill="#592859" fill-opacity="1.0" id="x592859_r89_g40_b89_a1.0_shape2"/>
    <path d="M 3,3 2,3 2,2 2,1 3,1 3,2 z" fill="#592859" fill-opacity="1.0" id="x592859_r89_g40_b89_a1.0_shape3"/>
    <path d="M 5,3 4,3 4,2 4,1 5,1 5,2 z" fill="#592859" fill-opacity="1.0" id="x592859_r89_g40_b89_a1.0_shape4"/>
    <path d="M 2,3 2,5 1,5 1,3 z" fill="#592859" fill-opacity="1.0" id="x592859_r89_g40_b89_a1.0_shape5"/>
    <path d="M 3,5 3,3 4,3 4,5 z" fill="#592859" fill-opacity="1.0" id="x592859_r89_g40_b89_a1.0_shape6"/>
    <path d="M 5,3 6,3 6,4 6,5 5,5 5,4 z" fill="#592859" fill-opacity="1.0" id="x592859_r89_g40_b89_a1.0_shape7"/>
    <path d="M 3,5 3,7 2,7 2,5 z" fill="#592859" fill-opacity="1.0" id="x592859_r89_g40_b89_a1.0_shape8"/>
    <path d="M 4,5 5,5 5,6 5,7 4,7 4,6 z" fill="#592859" fill-opacity="1.0" id="x592859_r89_g40_b89_a1.0_shape9"/>
    <path d="M 3,7 4,7 4,8 3,8 z" fill="#592859" fill-opacity="1.0" id="x592859_r89_g40_b89_a1.0_shape10"/>
  </g>
  <g id="xa349a4_r163_g73_b164_a1.0">
    <path d="M 1,1 2,1 2,2 2,3 1,3 1,2 z" fill="#a349a4" fill-opacity="1.0" id="xa349a4_r163_g73_b164_a1.0_shape1"/>
    <path d="M 6,1 6,3 5,3 5,1 z" fill="#a349a4" fill-opacity="1.0" id="xa349a4_r163_g73_b164_a1.0_shape2"/>
    <path d="M 3,3 3,5 2,5 2,3 z" fill="#a349a4" fill-opacity="1.0" id="xa349a4_r163_g73_b164_a1.0_shape3"/>
    <path d="M 4,3 5,3 5,4 5,5 4,5 4,4 z" fill="#a349a4" fill-opacity="1.0" id="xa349a4_r163_g73_b164_a1.0_shape4"/>
    <path d="M 4,7 3,7 3,6 3,5 4,5 4,6 z" fill="#a349a4" fill-opacity="1.0" id="xa349a4_r163_g73_b164_a1.0_shape5"/>
  </g>
</svg>
