<?xml version="1.0" encoding="utf-8" ?>
<svg xmlns="http://www.w3.org/2000/svg" xmlns:ev="http://www.w3.org/2001/xml-events" xmlns:xlink="http://www.w3.org/1999/xlink" baseProfile="full" height="8px" version="1.1" viewBox="0 0 8 8" width="8px">
  <defs/>
  <g id="x8dc7e7_r141_g199_b231_a1.0">
    <path d="M 4,5 8,5 8,6 4,6 z" fill="#8dc7e7" fill-opacity="1.0" id="x8dc7e7_r141_g199_b231_a1.0_shape1"/>
    <path d="M 1,2 1,4 0,4 0,2 z" fill="#8dc7e7" fill-opacity="1.0" id="x8dc7e7_r141_g199_b231_a1.0_shape2"/>
    <path d="M 2,4 3,4 3,5 2,5 z" fill="#8dc7e7" fill-opacity="1.0" id="x8dc7e7_r141_g199_b231_a1.0_shape3"/>
    <path d="M 1,6 1,5 2,5 2,6 z" fill="#8dc7e7" fill-opacity="1.0" id="x8dc7e7_r141_g199_b231_a1.0_shape4"/>
  </g>
  <g id="xfe0000_r254_g0_b0_a1.0">
    <path d="M 6,1 7,1 7,2 6,2 z" fill="#fe0000" fill-opacity="1.0" id="xfe0000_r254_g0_b0_a1.0_shape1"/>
    <path d="M 6,3 5,3 5,2 6,2 z" fill="#fe0000" fill-opacity="1.0" id="xfe0000_r254_g0_b0_a1.0_shape2"/>
    <path d="M 4,3 5,3 5,4 4,4 z" fill="#fe0000" fill-opacity="1.0" id="xfe0000_r254_g0_b0_a1.0_shape3"/>
    <path d="M 3,5 3,4 4,4 4,5 z" fill="#fe0000" fill-opacity="1.0" id="xfe0000_r254_g0_b0_a1.0_shape4"/>
    <path d="M 2,5 3,5 3,6 2,6 z" fill="#fe0000" fill-opacity="1.0" id="xfe0000_r254_g0_b0_a1.0_shape5"/>
    <path d="M 2,6 2,7 1,7 1,6 z" fill="#fe0000" fill-opacity="1.0" id="xfe0000_r254_g0_b0_a1.0_shape6"/>
  </g>
  <g id="x820000_r130_g0_b0_a1.0">
    <path d="M 6,2 7,2 7,3 6,3 z" fill="#820000" fill-opacity="1.0" id="x820000_r130_g0_b0_a1.0_shape1"/>
    <path d="M 5,3 6,3 6,4 5,4 z" fill="#820000" fill-opacity="1.0" id="x820000_r130_g0_b0_a1.0_shape2"/>
    <path d="M 5,4 5,5 4,5 4,4 z" fill="#820000" fill-opacity="1.0" id="x820000_r130_g0_b0_a1.0_shape3"/>
    <path d="M 3,6 3,5 4,5 4,6 z" fill="#820000" fill-opacity="1.0" id="x820000_r130_g0_b0_a1.0_shape4"/>
    <path d="M 2,7 2,6 3,6 3,7 z" fill="#820000" fill-opacity="1.0" id="x820000_r130_g0_b0_a1.0_shape5"/>
    <path d="M 1,7 2,7 2,8 1,8 z" fill="#820000" fill-opacity="1.0" id="x820000_r130_g0_b0_a1.0_shape6"/>
  </g>
  <g id="x60acd6_r96_g172_b214_a1.0">
    <path d="M 7,6 7,7 5,7 3,7 3,6 4,6 z" fill="#60acd6" fill-opacity="1.0" id="x60acd6_r96_g172_b214_a1.0_shape1"/>
    <path d="M 1,6 0,6 0,5 0,4 1,4 1,5 z" fill="#60acd6" fill-opacity="1.0" id="x60acd6_r96_g172_b214_a1.0_shape2"/>
  </g>
  <g id="xdbecf6_r219_g236_b246_a1.0">
    <path d="M 1,1 4,1 4,2 1,2 z" fill="#dbecf6" fill-opacity="1.0" id="xdbecf6_r219_g236_b246_a1.0_shape1"/>
    <path d="M 4,3 4,2 5,2 5,3 z" fill="#dbecf6" fill-opacity="1.0" id="xdbecf6_r219_g236_b246_a1.0_shape2"/>
    <path d="M 8,5 7,5 7,4 8,4 z" fill="#dbecf6" fill-opacity="1.0" id="xdbecf6_r219_g236_b246_a1.0_shape3"/>
  </g>
  <g id="x25698e_r37_g105_b142_a1.0">
    <path d="M 1,2 3,2 3,3 1,3 z" fill="#25698e" fill-opacity="1.0" id="x25698e_r37_g105_b142_a1.0_shape1"/>
  </g>
  <g id="x3b86ae_r59_g134_b174_a1.0">
    <path d="M 2,3 2,5 1,5 1,3 z" fill="#3b86ae" fill-opacity="1.0" id="x3b86ae_r59_g134_b174_a1.0_shape1"/>
  </g>
</svg>
